<svg xmlns="http://www.w3.org/2000/svg" xmlns:ed="http://www.edrawsoft.com/schema/svg" version="1.1" viewBox="0 0 1344 816" ed:version="version 4.6"><style type="text/css">.st1,.st2{stroke:#000;stroke-linejoin:bevel}.st1{fill:#fff;stroke-width:1}.st2{fill:#8acf57}.st2,.st4,.st6{stroke-width:1}.st4{fill:none;stroke:#000;stroke-linejoin:bevel;marker-end:url(#mk1)}.st6{stroke:#ff1418}.st6,.st8{fill:none;stroke-linejoin:bevel;marker-end:url(#mk1)}.st10,.st8{stroke:#00af54;stroke-width:1}.st10,.st12,.st14{fill:none;stroke-linejoin:bevel}.st12{stroke:#00af54;stroke-width:1;marker-start:url(#mk2)}.st14{stroke:none;stroke-width:.333333}</style><defs id="Markers"><marker id="mk1" orient="auto" overflow="visible"><path d="M-0.00,-0.00 L-13.33,3.33 L-13.33,-3.33 z" style="fill:#000;stroke:none"/></marker><marker id="mk2" orient="auto" overflow="visible"><path d="M-0.00,-0.00 L13.33,-3.33 L13.33,3.33 z" style="fill:#00af54;stroke:none"/></marker></defs><g><title>Layer-1</title><g id="10008"><path d="M139.33,72.00 L139.33,0.00 L0.00,0.00 L0.00,72.00 L139.33,72.00 z" class="st1" transform="translate(309.00,312.00)"/><text transform="translate(309.00,312.00)"><tspan x="45" y="21" style="font-family:Arial;fill:#000;font-weight:700;font-size:8pt">keydown</tspan> <tspan x="8" y="35" style="font-family:Arial;fill:#000;font-size:8pt">(only for latest key down)</tspan> <tspan x="14" y="49" style="font-family:Arial;fill:#000;font-size:8pt">Handwriting recognition </tspan> <tspan x="35" y="63" style="font-family:Arial;fill:#000;font-size:8pt">keyCode = 231</tspan></text></g><g id="10013"><path d="M0.00,30.00 C0.00,13.43 22.39,0.00 50.00,0.00 C77.61,0.00 100.00,13.43 100.00,30.00 C100.00,46.57 77.61,60.00 50.00,60.00 C22.39,60.00 0.00,46.57 0.00,30.00 z" class="st2" transform="translate(15.00,318.00)"/><text transform="translate(15.00,318.00) translate(0.00,0.00)"><tspan x="11" y="36.021" style="font-family:Arial;fill:#000;font-weight:700;font-size:8pt">No Key Activity</tspan></text></g><g id="10382"><path d="M50.00,60.00 L100.00,30.00 L50.00,0.00 L0.00,30.00 L50.00,60.00 z" class="st1" transform="translate(166.00,318.00)"/><text transform="translate(166.00,318.00)"><tspan x="40" y="36" style="font-family:Arial;fill:#000;font-size:8pt">IME?</tspan></text></g><g id="10016"><path d="M54.22,80.00 L108.44,40.00 L54.22,0.00 L0.00,40.00 L54.22,80.00 z" class="st1" transform="translate(161.78,143.97)"/><text transform="translate(161.78,143.97)"><tspan x="28" y="32" style="font-family:Arial;fill:#000;font-size:8pt">Created via </tspan> <tspan x="35" y="46" style="font-family:Arial;fill:#000;font-size:8pt">physical </tspan> <tspan x="30" y="60" style="font-family:Arial;fill:#000;font-size:8pt">keyboard?</tspan></text></g><g id="10018"><path d="M50.00,60.00 L100.00,30.00 L50.00,0.00 L0.00,30.00 L50.00,60.00 z" class="st1" transform="translate(166.00,24.00)"/><text transform="translate(166.00,24.00)"><tspan x="33" y="29" style="font-family:Arial;fill:#000;font-size:8pt">IME Pad</tspan> <tspan x="28" y="43" style="font-family:Arial;fill:#000;font-size:8pt">Command</tspan></text></g><g id="10419"><path d="M25.00,50.00 L75.00,50.00 A25.00 25.00 0.00 1 0 75.00,0.00 L25.00,0.00 A25.00 25.00 0.00 1 0 25.00,50.00 z" class="st1" transform="translate(15.00,29.00)"/><text transform="translate(15.00,29.00)"><tspan x="27" y="31" style="font-family:Arial;fill:#000;font-size:8pt">No Events</tspan></text></g><g id="10087"><path d="M53.88,75.00 L107.76,37.50 L53.88,0.00 L0.00,37.50 L53.88,75.00 z" class="st1" transform="translate(324.79,146.47)"/><text transform="translate(324.79,146.47)"><tspan x="31" y="29.5" style="font-family:Arial;fill:#000;font-size:8pt">Character </tspan> <tspan x="27" y="43.5" style="font-family:Arial;fill:#000;font-size:8pt">composition </tspan> <tspan x="28" y="57.5" style="font-family:Arial;fill:#000;font-size:8pt">sequence?</tspan></text></g><g id="10089"><path d="M86.00,61.06 L86.00,0.00 L0.00,0.00 L0.00,61.06 L86.00,61.06 z" class="st1" transform="translate(478.00,153.44)"/><text transform="translate(478.00,153.44)"><tspan x="19" y="29.53" style="font-family:Arial;fill:#000;font-weight:700;font-size:8pt">keydown</tspan> <tspan x="8" y="43.53" style="font-family:Arial;fill:#000;font-size:8pt">keyCode = 229</tspan></text></g><g id="10091"><path d="M81.94,59.00 L81.94,0.00 L0.00,0.00 L0.00,59.00 L81.94,59.00 z" class="st1" transform="translate(600.00,154.47)"/><text transform="translate(600.00,154.47)"><tspan x="25" y="14.5" style="font-family:Arial;fill:#000;font-weight:700;font-size:8pt">keyup</tspan> <tspan x="21" y="28.5" style="font-family:Arial;fill:#000;font-size:8pt">keyCode </tspan> <tspan x="11" y="42.5" style="font-family:Arial;fill:#000;font-size:8pt">corresponds </tspan> <tspan x="6" y="56.5" style="font-family:Arial;fill:#000;font-size:8pt">to key pressed</tspan></text></g><g id="10093"><path d="M52.36,87.97 L104.73,43.98 L52.36,0.00 L0.00,43.98 L52.36,87.97 z" class="st1" transform="translate(735.27,139.98)"/><text transform="translate(735.27,139.98)"><tspan x="30" y="35.985" style="font-family:Arial;fill:#000;font-size:8pt">Character </tspan> <tspan x="30" y="49.985" style="font-family:Arial;fill:#000;font-size:8pt">sequence </tspan> <tspan x="26" y="63.985" style="font-family:Arial;fill:#000;font-size:8pt">completed?</tspan></text></g><g id="10095"><path d="M25.00,50.00 L75.00,50.00 A25.00 25.00 0.00 1 0 75.00,0.00 L25.00,0.00 A25.00 25.00 0.00 1 0 25.00,50.00 z" class="st1" transform="translate(888.00,158.97)"/><text transform="translate(888.00,158.97)"><tspan x="39" y="31" style="font-family:Arial;fill:#000;font-size:8pt">Done</tspan></text></g><g id="10097"><path d="M100.00,60.00 L100.00,0.00 L0.00,0.00 L0.00,60.00 L100.00,60.00 z" class="st1" transform="translate(-408.00,204.00)"/></g><g id="10099"><path d="M57.50,82.39 L115.00,41.19 L57.50,0.00 L0.00,41.19 L57.50,82.39 z" class="st1" transform="translate(494.00,306.81)"/><text transform="translate(494.00,306.81)"><tspan x="30" y="33.194" style="font-family:Arial;fill:#000;font-size:8pt">Combination</tspan> <tspan x="7" y="47.194" style="font-family:Arial;fill:#000;font-size:8pt"> of keys or a function </tspan> <tspan x="47" y="61.194" style="font-family:Arial;fill:#000;font-size:8pt">key?</tspan></text></g><g id="10101"><path d="M60.00,55.20 L120.00,27.60 L60.00,0.00 L0.00,27.60 L60.00,55.20 z" class="st1" transform="translate(648.00,320.40)"/><text transform="translate(648.00,320.40)"><tspan x="24" y="33.6" style="font-family:Arial;fill:#000;font-size:8pt">Character key?</tspan></text></g><g id="10103"><path d="M50.00,60.00 L100.00,30.00 L50.00,0.00 L0.00,30.00 L50.00,60.00 z" class="st1" transform="translate(850.00,318.00)"/><text transform="translate(850.00,318.00)"><tspan x="24" y="36" style="font-family:Arial;fill:#000;font-size:8pt">Sustained?</tspan></text></g><g id="10105"><path d="M66.00,84.00 L132.00,42.00 L66.00,0.00 L0.00,42.00 L66.00,84.00 z" class="st1" transform="translate(12.00,444.00)"/><text transform="translate(12.00,444.00)"><tspan x="21" y="41" style="font-family:Arial;fill:#000;font-size:8pt">Browser/Windows </tspan> <tspan x="20" y="55" style="font-family:Arial;fill:#000;font-size:8pt">keyboard shortcut?</tspan></text></g><g id="10107"><path d="M51.06,84.00 L102.12,42.00 L51.06,0.00 L0.00,42.00 L51.06,84.00 z" class="st1" transform="translate(209.88,444.00)"/><text transform="translate(209.88,444.00)"><tspan x="16" y="41" style="font-family:Arial;fill:#000;font-size:8pt">Loss of Trident </tspan> <tspan x="35" y="55" style="font-family:Arial;fill:#000;font-size:8pt">focus?</tspan></text></g><g id="10109"><path d="M84.00,84.00 L168.00,42.00 L84.00,0.00 L0.00,42.00 L84.00,84.00 z" class="st1" transform="translate(360.00,444.00)"/><text transform="translate(360.00,444.00)"><tspan x="45" y="34" style="font-family:Arial;fill:#000;font-size:8pt">Released before </tspan> <tspan x="39" y="48" style="font-family:Arial;fill:#000;font-size:8pt">Trident loses focus </tspan> <tspan x="39" y="62" style="font-family:Arial;fill:#000;font-size:8pt">(or dialog shows)?</tspan></text></g><g id="10111"><path d="M132.00,60.00 L132.00,0.00 L0.00,0.00 L0.00,60.00 L132.00,60.00 z" class="st1" transform="translate(642.00,420.00)"/><text transform="translate(642.00,420.00)"><tspan x="41" y="22" style="font-family:Arial;fill:#000;font-weight:700;font-size:8pt">keypress</tspan> <tspan x="17" y="36" style="font-family:Arial;fill:#000;font-size:8pt">keyCode = character </tspan> <tspan x="55" y="50" style="font-family:Arial;fill:#000;font-size:8pt">code</tspan></text></g><g id="10113"><path d="M72.00,102.00 L144.00,51.00 L72.00,0.00 L0.00,51.00 L72.00,102.00 z" class="st1" transform="translate(636.00,528.00)"/><text transform="translate(636.00,528.00)"><tspan x="49" y="43" style="font-family:Arial;fill:#000;font-size:8pt">Sustained </tspan> <tspan x="16" y="57" style="font-family:Arial;fill:#000;font-size:8pt">or new combination key </tspan> <tspan x="50" y="71" style="font-family:Arial;fill:#000;font-size:8pt">pressed?</tspan></text></g><g id="10115"><path d="M31.00,62.00 L135.00,62.00 A31.00 31.00 0.00 1 0 135.00,0.00 L31.00,0.00 A31.00 31.00 0.00 1 0 31.00,62.00 z" class="st1" transform="translate(817.00,548.00)"/><text transform="translate(817.00,548.00)"><tspan x="67" y="16" style="font-family:Arial;fill:#000;font-weight:700;font-size:8pt">keyup</tspan> <tspan x="10" y="30" style="font-family:Arial;fill:#000;font-size:8pt">Waits and fires keyup for each </tspan> <tspan x="13" y="44" style="font-family:Arial;fill:#000;font-size:8pt">key that is depressed as they </tspan> <tspan x="54" y="58" style="font-family:Arial;fill:#000;font-size:8pt">are released</tspan></text></g><g id="10117"><path d="M50.00,60.00 L100.00,30.00 L50.00,0.00 L0.00,30.00 L50.00,60.00 z" class="st1" transform="translate(28.00,579.00)"/><text transform="translate(28.00,579.00)"><tspan x="38" y="36" style="font-family:Arial;fill:#000;font-size:8pt">ALT?</tspan></text></g><g id="10119"><path d="M72.00,78.00 L144.00,39.00 L72.00,0.00 L0.00,39.00 L72.00,78.00 z" class="st1" transform="translate(6.00,663.00)"/><text transform="translate(6.00,663.00)"><tspan x="22" y="38" style="font-family:Arial;fill:#000;font-size:8pt">ALT released prior to</tspan> <tspan x="41" y="52" style="font-family:Arial;fill:#000;font-size:8pt">other key(s)?</tspan></text></g><g id="10121"><path d="M18.00,36.00 L102.00,36.00 A18.00 18.00 0.00 1 0 102.00,0.00 L18.00,0.00 A18.00 18.00 0.00 1 0 18.00,36.00 z" class="st1" transform="translate(18.00,768.00)"/><text transform="translate(18.00,768.00)"><tspan x="44" y="17" style="font-family:Arial;fill:#000;font-weight:700;font-size:8pt">keyup</tspan> <tspan x="11" y="31" style="font-family:Arial;fill:#000;font-size:8pt">Only for other key(s)</tspan></text></g><g id="10123"><path d="M14.00,28.00 L86.00,28.00 A14.00 14.00 0.00 1 0 86.00,0.00 L14.00,0.00 A14.00 14.00 0.00 1 0 14.00,28.00 z" class="st1" transform="translate(394.00,551.00)"/><text transform="translate(394.00,551.00)"><tspan x="34" y="20" style="font-family:Arial;fill:#000;font-weight:700;font-size:8pt">keyup</tspan></text></g><g id="10125"><path d="M25.00,50.00 L75.00,50.00 A25.00 25.00 0.00 1 0 75.00,0.00 L25.00,0.00 A25.00 25.00 0.00 1 0 25.00,50.00 z" class="st1" transform="translate(524.00,540.00)"/><text transform="translate(524.00,540.00)"><tspan x="20" y="24" style="font-family:Arial;fill:#000;font-size:8pt">Trident loses </tspan> <tspan x="37" y="38" style="font-family:Arial;fill:#000;font-size:8pt">focus</tspan></text></g><g id="10126"><path d="M0.00,0.00 L51.00,0.00" class="st4" transform="translate(115.00,348.00)"/></g><g id="10127"><path d="M0.00,0.00 L43.00,0.00" class="st6" transform="translate(266.00,348.00)"/></g><g id="10128"><path d="M0.00,0.00 L0.00,-94.03" class="st8" transform="translate(216.00,318.00)"/></g><g id="10129"><path d="M0.00,0.00 L0.00,-59.97" class="st6" transform="translate(216.00,143.97)"/></g><g id="10130"><path d="M0.00,0.00 L-51.00,0.00" class="st6" transform="translate(166.00,54.00)"/></g><g id="10131"><path d="M0.00,0.00 L54.57,0.00" class="st8" transform="translate(270.22,183.97)"/></g><g id="10132"><path d="M0.00,0.00 L30.00,0.00 L30.00,228.00 L112.67,228.00" class="st8" transform="translate(266.00,54.00)"/></g><g id="10133"><path d="M0.00,0.00 L-0.00,60.53" class="st6" transform="translate(378.67,221.47)"/></g><g id="10134"><path d="M0.00,0.00 L45.45,0.00" class="st8" transform="translate(432.55,183.97)"/></g><g id="10135"><path d="M0.00,0.00 L36.00,0.00" class="st4" transform="translate(564.00,183.97)"/></g><g id="10136"><path d="M0.00,0.00 L53.33,0.00" class="st4" transform="translate(681.94,183.97)"/></g><g id="10137"><path d="M0.00,0.00 L48.00,0.00" class="st8" transform="translate(840.00,183.97)"/></g><g id="10138"><path d="M0.00,0.00 L0.00,-30.00 L-266.64,-30.00 L-266.64,13.46" class="st6" transform="translate(787.64,139.98)"/></g><g id="10139"><path d="M0.00,0.00 L45.67,0.00" class="st4" transform="translate(448.33,348.00)"/></g><g id="10140"><path d="M0.00,0.00 L39.00,0.00" class="st6" transform="translate(609.00,348.00)"/></g><g id="10141"><path d="M0.00,0.00 L82.00,0.00" class="st6" transform="translate(768.00,348.00)"/></g><g id="10142"><path d="M0.00,0.00 L0.00,-36.00 L-521.33,-36.00 L-521.33,-6.00" class="st8" transform="translate(900.00,318.00)"/></g><g id="10143"><path d="M0.00,0.00 L0.00,170.00" class="st6" transform="translate(900.00,378.00)"/></g><g id="10145"><path d="M0.00,0.00 L0.00,44.40" class="st4" transform="translate(708.00,375.60)"/></g><g id="10146"><path d="M0.00,0.00 L0.00,48.00" class="st4" transform="translate(708.00,480.00)"/></g><g id="10149"><path d="M0.00,0.00 L37.00,0.00" class="st6" transform="translate(780.00,579.00)"/></g><g id="10150"><path d="M0.00,0.00 L0.00,30.00 L300.00,30.00 L300.00,-348.00" class="st10" transform="translate(708.00,630.00)"/></g><g id="10151"><path d="M0.00,0.00 L-108.00,0.00" class="st8" transform="translate(1008.00,282.00)"/></g><g id="10152"><path d="M0.00,0.00 L0.00,27.40 L-473.50,27.40 L-473.50,54.81" class="st8" transform="translate(551.50,389.19)"/></g><g id="10153"><path d="M0.00,0.00 L0.00,51.00" class="st6" transform="translate(78.00,528.00)"/></g><g id="10154"><path d="M0.00,0.00 L0.00,24.00" class="st8" transform="translate(78.00,639.00)"/></g><g id="10155"><path d="M0.00,0.00 L0.00,27.00" class="st6" transform="translate(78.00,741.00)"/></g><g id="10158"><path d="M0.00,0.00 L424.00,0.00 L424.00,-112.00" class="st8" transform="translate(150.00,702.00)"/></g><g id="10161"><path d="M0.00,0.00 L46.00,0.00 L46.00,54.00" class="st4" transform="translate(528.00,486.00)"/></g><g id="10162"><path d="M0.00,0.00 L0.00,-23.00" class="st12" transform="translate(444.00,551.00)"/></g><g id="10163"><path d="M0.00,0.00 L48.00,0.00" class="st8" transform="translate(312.00,486.00)"/></g><g id="10166"><path d="M0.00,0.00 L65.88,0.00" class="st8" transform="translate(144.00,486.00)"/></g><g id="10167"><path d="M0.00,0.00 L382.00,0.00 L382.00,-44.00 L396.00,-44.00" class="st6" transform="translate(128.00,609.00)"/></g><g id="10168"><path d="M0.00,0.00 L0.00,72.00" class="st6" transform="translate(260.94,528.00)"/></g><g id="10048"><path d="M0.00,291.00 L408.00,291.00 L408.00,0.00 L0.00,0.00 L0.00,291.00 z" class="st14" transform="translate(996.00,38.47)"/><text transform="translate(996.00,38.47)"><tspan x="91" y="13.5" style="font-family:Calibri;fill:#000;font-weight:700;font-size:14pt">Trident Keyboard Event Flow</tspan> <tspan x="158" y="43.5" style="font-family:Calibri;fill:#000;font-weight:700;font-size:10pt">Noted Exception:</tspan> <tspan x="112" y="58.5" style="font-family:Calibri;fill:#000;font-size:10pt">ALT+D No keydown event for the D.</tspan> <tspan x="166" y="88.5" style="font-family:Calibri;fill:#000;font-weight:700;font-size:10pt">Microsoft IME:</tspan> <tspan x="105" y="103.5" style="font-family:Calibri;fill:#000;font-size:10pt">When using the IME Pad instead of a </tspan> <tspan x="101" y="118.5" style="font-family:Calibri;fill:#000;font-size:10pt">physical keyboard, only the command</tspan> <tspan x="124" y="133.5" style="font-family:Calibri;fill:#000;font-size:10pt"> buttons fire keyboard events.</tspan> <tspan x="129" y="163.5" style="font-family:Calibri;fill:#000;font-weight:700;font-size:10pt">IME Pad Command Buttons:</tspan> <tspan x="77" y="178.5" style="font-family:Calibri;fill:#000;font-size:10pt">BS, Enter, Space, Del, Esc, Conv, and arrow keys</tspan> <tspan x="163" y="208.5" style="font-family:Calibri;fill:#000;font-weight:700;font-size:10pt">Character Keys:</tspan> <tspan x="89" y="223.5" style="font-family:Calibri;fill:#000;font-size:10pt">a-z, A-Z, 0-9, ~!@#$%^&amp;*()_+=[]\;’,./&lt;&gt;?:”{}|,</tspan> <tspan x="145" y="238.5" style="font-family:Calibri;fill:#000;font-size:10pt"> ESCAPE, SPACE, ENTER</tspan> <tspan x="166" y="268.5" style="font-family:Calibri;fill:#000;font-weight:700;font-size:10pt">Function Keys:</tspan> <tspan x="187" y="283.5" style="font-family:Calibri;fill:#000;font-size:10pt">F1-F12</tspan></text></g></g></svg>