<svg xmlns="http://www.w3.org/2000/svg" xmlns:svg="http://www.w3.org/2000/svg" id="svg3055" width="450" height="250" version="1.1"><defs id="defs3057"><marker id="Arrow1Mend" orient="auto" refX="0" refY="0" style="overflow:visible"><path id="path3868" d="M 0,0 5,-5 -12.5,0 5,5 0,0 z" transform="matrix(-0.4,0,0,-0.4,-4,0)" style="fill-rule:evenodd;stroke:#000;stroke-width:1pt;marker-start:none"/></marker><marker id="Arrow1Send" orient="auto" refX="0" refY="0" style="overflow:visible"><path id="path3874" d="M 0,0 5,-5 -12.5,0 5,5 0,0 z" transform="matrix(-0.2,0,0,-0.2,-1.2,0)" style="fill-rule:evenodd;stroke:#000;stroke-width:1pt;marker-start:none"/></marker><marker id="Arrow1Sstart" orient="auto" refX="0" refY="0" style="overflow:visible"><path id="path3871" d="M 0,0 5,-5 -12.5,0 5,5 0,0 z" transform="matrix(0.2,0,0,0.2,1.2,0)" style="fill-rule:evenodd;stroke:#000;stroke-width:1pt;marker-start:none"/></marker><marker id="Arrow1Lstart" orient="auto" refX="0" refY="0" style="overflow:visible"><path id="path3859" d="M 0,0 5,-5 -12.5,0 5,5 0,0 z" transform="matrix(0.8,0,0,0.8,10,0)" style="fill-rule:evenodd;stroke:#000;stroke-width:1pt;marker-start:none"/></marker><marker id="Arrow1Lend" orient="auto" refX="0" refY="0" style="overflow:visible"><path id="path3862" d="M 0,0 5,-5 -12.5,0 5,5 0,0 z" transform="matrix(-0.8,0,0,-0.8,-10,0)" style="fill-rule:evenodd;stroke:#000;stroke-width:1pt;marker-start:none"/></marker></defs><metadata id="metadata3060"/><g id="layer1" transform="translate(0,-802.36215)"><g id="g6687" transform="translate(-137.85701,285.22141)"><rect id="rect3074" width="293.221" height="142.396" x="161.868" y="624.368" transform="matrix(0.9935932,-0.11301575,0.06717403,0.99774127,0,0)" style="fill:#ed1c24;fill-opacity:1;stroke:#000;stroke-width:0;stroke-linecap:round;stroke-linejoin:round;stroke-miterlimit:4;stroke-opacity:1;stroke-dasharray:none;stroke-dashoffset:0"/><rect style="fill:#ff7f27;fill-opacity:1;stroke:#000;stroke-width:0;stroke-linecap:round;stroke-linejoin:round;stroke-miterlimit:4;stroke-opacity:1;stroke-dasharray:none;stroke-dashoffset:0" id="rect3844" width="293.221" height="142.396" x="193.177" y="607.869" transform="matrix(0.9935932,-0.11301575,0.06717403,0.99774127,0,0)"/><rect id="rect3846" width="293.221" height="142.396" x="224.485" y="591.37" transform="matrix(0.9935932,-0.11301575,0.06717403,0.99774127,0,0)" style="fill:#ffc90e;fill-opacity:1;stroke:#000;stroke-width:0;stroke-linecap:round;stroke-linejoin:round;stroke-miterlimit:4;stroke-opacity:1;stroke-dasharray:none;stroke-dashoffset:0"/><path id="rect3848" d="m 474.36088,766.92516 -312.4932,-0.16163" transform="matrix(0.9935932,-0.11301575,0.06717403,0.99774127,0,0)" style="fill:none;stroke:#000;stroke-width:3.00159025;stroke-linecap:round;stroke-linejoin:round;stroke-miterlimit:4;stroke-opacity:1;stroke-dasharray:none;stroke-dashoffset:0;marker-start:url(#Arrow1Sstart);marker-end:none"/><path id="rect3851" d="M 161.86768,766.76353 161.56451,608.83611" transform="matrix(0.9935932,-0.11301575,0.06717403,0.99774127,0,0)" style="fill:none;stroke:#000;stroke-width:3.00159025;stroke-linecap:round;stroke-linejoin:round;stroke-miterlimit:4;stroke-opacity:1;stroke-dasharray:none;stroke-dashoffset:0;marker-end:url(#Arrow1Send)"/><path style="fill:none;stroke:#000;stroke-width:3.00159025;stroke-linecap:round;stroke-linejoin:round;stroke-miterlimit:4;stroke-opacity:1;stroke-dasharray:none;stroke-dashoffset:0;marker-start:none;marker-end:url(#Arrow1Send)" id="path3854" d="M 161.86768,766.76353 280.67401,703.52016" transform="matrix(0.9935932,-0.11301575,0.06717403,0.99774127,0,0)"/><g style="font-size:12px;font-style:normal;font-variant:normal;font-weight:400;font-stretch:normal;text-align:center;line-height:125%;letter-spacing:0;word-spacing:0;text-anchor:middle;fill:#000;fill-opacity:1;stroke:none;font-family:Verdana;-inkscape-font-specification:Verdana" id="flowRoot5792" transform="translate(62.521417,173.44651)"><path style="font-family:Verdana;-inkscape-font-specification:Verdana" id="path3826" d="m 459.16797,552.50235 -1.38867,0 -1.85743,-2.51367 -1.86914,2.51367 -1.2832,0 2.55469,-3.26367 -2.53125,-3.28125 1.38867,0 1.8457,2.47265 1.85157,-2.47265 1.28906,0 -2.57227,3.22265 2.57227,3.32227"/></g><g style="font-size:12px;font-style:normal;font-variant:normal;font-weight:400;font-stretch:normal;text-align:center;line-height:125%;letter-spacing:0;word-spacing:0;text-anchor:middle;fill:#000;fill-opacity:1;stroke:none;font-family:Verdana;-inkscape-font-specification:Verdana" id="flowRoot5792-7" transform="translate(-134.95825,134.05425)"><path style="font-family:Verdana;-inkscape-font-specification:Verdana" id="path3823" d="m 458.64648,552.50235 -5.28515,0 0,-0.81446 3.81445,-4.81054 -3.73242,0 0,-0.91992 5.10351,0 0,0.78515 -3.83203,4.82813 3.93164,0 0,0.93164"/></g><g style="font-size:12px;font-style:normal;font-variant:normal;font-weight:400;font-stretch:normal;text-align:center;line-height:125%;letter-spacing:0;word-spacing:0;text-anchor:middle;fill:#000;fill-opacity:1;stroke:none;font-family:Verdana;-inkscape-font-specification:Verdana" id="flowRoot5792-1" transform="translate(-264.03472,53.717591)"><path style="font-family:Verdana;-inkscape-font-specification:Verdana" id="path3820" d="m 459.16211,545.95743 -3.82031,8.95898 -1.17774,0 1.21875,-2.73047 -2.60742,-6.22851 1.19531,0 2.00977,4.85156 2.02734,-4.85156 1.1543,0"/></g><text id="text5840" x="225.548" y="723.957" xml:space="preserve" style="font-size:12px;font-style:normal;font-weight:400;text-align:center;line-height:125%;letter-spacing:0;word-spacing:0;text-anchor:middle;fill:#000;fill-opacity:1;stroke:none;font-family:Sans"><tspan style="font-size:24px;font-weight:700;-inkscape-font-specification:Verdana Bold;font-family:Verdana;font-style:normal;font-stretch:normal;font-variant:normal" id="tspan5842" x="225.548" y="723.957">A</tspan></text><text style="font-size:12px;font-style:normal;font-weight:400;text-align:center;line-height:125%;letter-spacing:0;word-spacing:0;text-anchor:middle;fill:#000;fill-opacity:1;stroke:none;font-family:Sans" id="text5844" x="255.548" y="703.957" xml:space="preserve"><tspan id="tspan5846" x="255.548" y="703.957" style="font-size:24px;font-weight:700;-inkscape-font-specification:Verdana Bold;font-family:Verdana;font-style:normal;font-stretch:normal;font-variant:normal">B</tspan></text><text id="text5848" x="285.548" y="683.957" xml:space="preserve" style="font-size:12px;font-style:normal;font-weight:700;text-align:center;line-height:125%;letter-spacing:0;word-spacing:0;text-anchor:middle;fill:#000;fill-opacity:1;stroke:none;font-family:Verdana;-inkscape-font-specification:Verdana Bold;font-stretch:normal;font-variant:normal"><tspan style="font-size:24px;font-weight:700;-inkscape-font-specification:Verdana Bold;font-family:Verdana;font-style:normal;font-stretch:normal;font-variant:normal" id="tspan5850" x="285.548" y="683.957">C</tspan></text><path id="path6301" d="m 320.53771,606.00922 0,28 2,0 0,-2 2,0 0,-2 2,0 0,-2 2,0 0,2 2,0 0,4 2,0 0,4 4,0 0,-4 -2,0 0,-4 -2,0 0,-4 8,0 0,-2 -2,0 0,-2 -2,0 0,-2 -2,0 0,-2 -2,0 0,-2 -2,0 0,-2 -2,0 0,-2 -2,0 0,-2 -2,0 0,-2 -2,0 0,-2 z" style="fill:#000;fill-opacity:1;stroke:none"/><path style="fill:gray;fill-opacity:1;stroke:none" id="path6303" d="m 162.55349,691.72408 0,28 2,0 0,-2 2,0 0,-2 2,0 0,-2 2,0 0,2 2,0 0,4 2,0 0,4 4,0 0,-4 -2,0 0,-4 -2,0 0,-4 8,0 0,-2 -2,0 0,-2 -2,0 0,-2 -2,0 0,-2 -2,0 0,-2 -2,0 0,-2 -2,0 0,-2 -2,0 0,-2 -2,0 0,-2 -2,0 0,-2 z"/><path id="path6305" d="m 164.90553,688.69292 c 29.2439,-38.65571 82.12691,-77.34202 152.40746,-83.72862" style="fill:none;stroke:#000;stroke-width:2;stroke-linecap:butt;stroke-linejoin:miter;stroke-miterlimit:4;stroke-opacity:1;stroke-dasharray:2,4;stroke-dashoffset:0;marker-end:url(#Arrow1Mend)"/></g></g></svg>